PathFileType	4	(X/Y/Z)	55_2_21_p1_0-255_filt_butterworth.trc
DataRate	CameraRate	NumFrames	NumMarkers	Units	OrigDataRate	OrigDataStartFrame	OrigNumFrames
50.0	50.0	7	27	m	50.0	223	255
Frame#	Time	RHip			RKnee			RAnkle			RBigToe			RSmallToe			RHeel			LHip			LKnee			LAnkle			LBigToe			LSmallToe			LHeel			Neck			Head			Nose			RShoulder			RElbow			RWrist			RThumb			RIndex			RPinky			LShoulder			LElbow			LWrist			LThumb			LIndex			LPinky			
		X1	Y1	Z1	X2	Y2	Z2	X3	Y3	Z3	X4	Y4	Z4	X5	Y5	Z5	X6	Y6	Z6	X7	Y7	Z7	X8	Y8	Z8	X9	Y9	Z9	X10	Y10	Z10	X11	Y11	Z11	X12	Y12	Z12	X13	Y13	Z13	X14	Y14	Z14	X15	Y15	Z15	X16	Y16	Z16	X17	Y17	Z17	X18	Y18	Z18	X19	Y19	Z19	X20	Y20	Z20	X21	Y21	Z21	X22	Y22	Z22	X23	Y23	Z23	X24	Y24	Z24	X25	Y25	Z25	X26	Y26	Z26	X27	Y27	Z27	
223	4.46	0.3353258255813507	0.5626667437504664	0.6962937725998047	0.35163922676756604	0.5870223635768109	1.1706769167625566	0.34939326529905945	0.6155625160479989	1.6303191648875996	0.2770679444509118	0.4094127473381422	1.6297457031684979	0.34258180860925513	0.446886505967055	1.6545228544590627	0.32240895126716146	0.7003276242949932	1.7072659636848126	0.13161815658006362	0.591861513320591	0.7154758708687324	0.11930640832125594	0.5936196409510651	1.1912446780322101	0.11829232150815211	0.5905433769236015	1.6163800063279092	0.13532752176377888	0.4353478157453466	1.6448730846446598	0.07838272822222495	0.466498023687809	1.65184949199383	0.1283265686163354	0.630397533645027	1.6892008213464744	0.23510535193807583	0.5828118409311994	0.20899172536319593	0.23146096745654715	0.5326466038900588	-0.0346035421322405	0.21145801358570349	0.4696683358852063	0.09184664553362372	0.3909895599048956	0.5713291167789143	0.28875841015489623	0.40989048506002546	0.502488025464781	0.5435456827094359	0.2995601436691163	0.4009994768164893	0.7407643383545599	0.1820665688313553	0.38743572677858296	0.798182488652831	0.18525826919341593	0.38854010373757303	0.8190908467510626	0.22269220228108794	0.4009619873245172	0.8539100043565842	0.08644205331521104	0.6222175239433771	0.2720900224950298	0.05973681992922733	0.5237554154704329	0.5243308592335487	0.15875338876033224	0.42309117997249146	0.715190208951713	0.20790006184745577	0.389753308155273	0.7914737587398878	0.21043118958569415	0.3887373996956773	0.8152538414081915	0.19448081472355563	0.38803362426799554	0.8189654433170561
224	4.48	0.33689989166146417	0.5664593128734834	0.6971155716589412	0.35159876974368187	0.5870333109816429	1.170985409967126	0.3500297198294695	0.6159040234908745	1.630645094381035	0.27691034049155716	0.40925353837160405	1.6293830444454083	0.34240991715500824	0.44652302339259736	1.6543538693148838	0.3224493066149315	0.700374215403093	1.7073644279865596	0.13178542556559744	0.5921419395808637	0.7156950216864936	0.1191763418060861	0.5935752991598859	1.1914870483793885	0.11835115131571386	0.590630891966368	1.6164114623187587	0.1352437661922505	0.43537507262064995	1.6445647027055885	0.07838932808090784	0.4664575004380468	1.6518532940760697	0.12838769838448816	0.6305483957159251	1.6894211109674697	0.2351257818157561	0.5827999714990592	0.2090060852467317	0.23110595140225354	0.531645672547567	-0.03447579197804265	0.21140626633392912	0.4696666504508442	0.09211989287337236	0.39179090077404904	0.5745057373491536	0.2887979932066645	0.409070590458768	0.506579198375458	0.5456463462810559	0.29939571618588734	0.4007976256417818	0.7409656746642275	0.18203032192526372	0.3872640402742426	0.7982721189358217	0.18551805048485176	0.3886576655732463	0.8194364762291688	0.22282726190692195	0.4012232602953677	0.8537878662355938	0.08645258693710255	0.6222496570900097	0.2720240024421505	0.05985803186198223	0.5239909322544436	0.5258847029977259	0.15901299988226486	0.42272493793359533	0.7154598450618217	0.2079154394764498	0.3894752572010457	0.7916293563614502	0.21024494184931228	0.3883200401216592	0.8161564689431352	0.19482771757890302	0.388394907109754	0.8212738342130739
225	4.5	0.3389990488082062	0.570672808006559	0.6979993858491375	0.3514174355219262	0.5870768246842719	1.1721349594598558	0.3494694387154138	0.6156162252951307	1.6301887085948006	0.27659198464106305	0.4088764418780961	1.6282889640662308	0.34225292933921886	0.4463296836192221	1.654393952193887	0.32245502313966257	0.7004073418818484	1.7074245078236627	0.13194837519549021	0.5922559553513628	0.7158286097947879	0.11902738869171617	0.5935731093191795	1.1926143068265351	0.1183903831310344	0.5906890366122053	1.6164820636972501	0.1352843031448134	0.4353109461197661	1.644182597678956	0.07838637323550927	0.4664059649939919	1.6518553534394382	0.12834605706963126	0.630644367921031	1.6891906469408837	0.23513719971626743	0.5827977996659137	0.20900831289637112	0.23109083336752118	0.531583208176114	-0.034276402071417064	0.21130688224869107	0.4697218750679605	0.09213045989147138	0.39201399545324545	0.5754852196246698	0.2880865261162659	0.40805162469561884	0.5122714428568477	0.548585914231235	0.29927590958070655	0.4006914323248334	0.7407711074178697	0.18201519867254728	0.38684015388431925	0.7980375170234594	0.18579062766306187	0.3885377685898505	0.8207329375663897	0.2231142898642495	0.40140277110978073	0.8535852484541913	0.0864656140453702	0.6225269318766914	0.2720730240393471	0.060003194240533575	0.5243661464005019	0.5270112944690588	0.1591508224837375	0.42380682878923337	0.716846989276071	0.20805951296864506	0.3894934947239318	0.791932946758784	0.2098376913042545	0.3883488010779043	0.8176274591195368	0.19539332066936163	0.3889602692854399	0.8245315430929325
226	4.52	0.33970091721742335	0.5717513403762325	0.6984126758087279	0.35114976999020275	0.5871601738272787	1.173779275045463	0.3476083933615108	0.6146557853532284	1.6281948529374268	0.27655774038833175	0.40849542760052937	1.6273917346440638	0.3421447602181362	0.4462707522721721	1.6546916103394398	0.3224054015848228	0.7004141834525145	1.70737514650549	0.13189272832219315	0.5919970248760202	0.7151516056798619	0.11881792625681488	0.5935219138694852	1.1944891713219326	0.11832308249814616	0.5906144574784729	1.6160412856658086	0.13526656901560877	0.4352370626292657	1.6451010505469137	0.07837826573525222	0.46638217737758203	1.6518636558914288	0.12800552231110823	0.630645444321565	1.6873285387843795	0.23514373612601963	0.5828058787548094	0.2089994945025473	0.23141119935103327	0.5325347693852802	-0.0346981285776691	0.21151007843147904	0.4698559350284241	0.09201754529535591	0.3915590905328399	0.5744563643464194	0.28727682273308164	0.4073319908749544	0.515718172975788	0.5504762370700017	0.2993044785426813	0.40076056289338013	0.7407119537239777	0.1821058797805632	0.3864127382004068	0.7979043037261956	0.18590708829357155	0.388118814839874	0.8224375999067984	0.2231126532469132	0.40127006525509173	0.8536431432684508	0.08647993648327547	0.6230950386543581	0.27244959257006407	0.06008309709438528	0.5245555320066736	0.5273344442864962	0.15833365459510493	0.4279062796561108	0.7194382812555786	0.2083270364229634	0.3898435067305287	0.7922806392290045	0.20977325611983091	0.3888747572005135	0.8195441998132958	0.19586883086566365	0.38945322459168685	0.8267512051226393
227	4.54	0.33791908988703295	0.5705064993596627	0.6982007050904349	0.35096356244648463	0.587270544557851	1.1749443788006901	0.34512229620315055	0.6134497994932613	1.6253392089414678	0.2771197998480404	0.4084245454565173	1.627789964984982	0.342151810581856	0.44638844222047563	1.6550564480894756	0.3223298666983709	0.700386414627135	1.707249857701513	0.13172053504627138	0.5915106625092628	0.7132989261615695	0.11832524020781296	0.5932139011193314	1.1962393409440546	0.11804623585503646	0.5903072980857779	1.6143369676048915	0.13479259013577127	0.4353626875143454	1.6488175801736438	0.07838489411962857	0.4664175514203769	1.6518887037642165	0.1273678191993245	0.6305645140308574	1.6839044817322903	0.2351397082293678	0.5827710225003154	0.20898461154931727	0.23244503729466637	0.5356137737253488	-0.03642435623037843	0.2123719776198364	0.46967424201761937	0.09137776495787223	0.3906362707572413	0.5711908673789386	0.28636843830945385	0.4071531038289422	0.5160419905478979	0.550765497847057	0.29938649838019	0.40078856535222734	0.7410896466981773	0.18223965807550546	0.3861187715986046	0.7979538088955812	0.18562596501340003	0.38774774985956056	0.8231790509137572	0.22172830555633888	0.4007091161424869	0.8544026247827029	0.08651933398946526	0.6229820272355399	0.2730589372368741	0.060113230781532315	0.5242141538725767	0.5275707872267332	0.1559491409776143	0.43380614247129956	0.722221730066686	0.208179511185264	0.3899912270190947	0.7925130267517431	0.20975890376260348	0.3890705000536294	0.8225763524077959	0.19567829273718076	0.38932154681403885	0.827700695269206
228	4.56	0.3350362262622877	0.5700541206783976	0.6972313621611131	0.35092090245162444	0.5874123824595566	1.1752758585373402	0.34345311037818205	0.6127687978987271	1.6234015272724336	0.27755255285211494	0.4085137204315379	1.6284262324281773	0.3422939838168018	0.44681467038659267	1.6550502718264255	0.32226802690889	0.7003219879348901	1.7071257380470861	0.131619889494893	0.5911635634689403	0.7114046593129744	0.11714619337555796	0.5926632458029901	1.1970501547393817	0.11763838889557227	0.5898582736609665	1.6118693472461105	0.13403997532409534	0.43571347968416363	1.6538682473618536	0.0783997164643565	0.46650022834066973	1.6519312417951826	0.1267783311205618	0.6304376212337162	1.680815485797369	0.2351178364531553	0.5826886637476512	0.20897539707144194	0.23392905059571786	0.5399828705592392	-0.03888487002333138	0.2136147605113254	0.4681778806774281	0.09016451906110212	0.3898121367690943	0.5667782812639106	0.28551286852661084	0.4074611948097234	0.5174521047517444	0.5510278715820078	0.2994301097594909	0.4006585131805179	0.7421985155619851	0.18228024776641943	0.38588559741924233	0.7980139226374292	0.18442897717643578	0.3877407986770063	0.8219507075060433	0.2181042390931095	0.39993852651746614	0.8556427470153076	0.08663821747145645	0.6204908335496577	0.2732455040003176	0.060108474525430014	0.5235212704910124	0.5284718535490791	0.15241428910485838	0.43827713206348967	0.7245038043671355	0.2067017524881381	0.3892502634082143	0.7921594885228637	0.2084775241663498	0.3881886152961271	0.8261726233374578	0.1944542662196023	0.38807516869951886	0.8291724163756751
229	4.58	0.33312346543210136	0.5707196713155811	0.6953707843865725	0.35093854271740654	0.5875794795450213	1.1752125821294337	0.3430664023885386	0.6127302117441286	1.622977668173087	0.27708534753026814	0.40840571254615987	1.6276875103578465	0.34197152952837784	0.4470433341115479	1.6540320435482143	0.3222306857754015	0.7002465055102431	1.707040568585405	0.13165716370809288	0.5911183380779208	0.7103820464310882	0.11556208201492213	0.5924362716345415	1.196846943146113	0.11732822498637474	0.5895191240058449	1.6101345059601802	0.13375076942635508	0.43604387965197733	1.6563105478457483	0.07839850847327039	0.4665968187361972	1.6519781943767389	0.1268697770908665	0.6304934858943343	1.6796111203535817	0.23506762486152266	0.58268846125036	0.2089861703327917	0.23497894298650468	0.5429893809471761	-0.04056871319142715	0.2144548208207771	0.46455018055772646	0.08941233736836371	0.3891314671334818	0.5637146941092913	0.2849628677297041	0.40819930024709766	0.5243225373803337	0.552831192376776	0.29937147671672004	0.4005480077041785	0.7437601024426843	0.18197735376442903	0.3850385228557133	0.7975703608709629	0.1822031592882709	0.38744711890515693	0.8196524302835917	0.21296802799545123	0.3990952579529963	0.8568190960827096	0.0868483655796035	0.6160733222373955	0.27297807705732713	0.059773330489036824	0.5239799194024173	0.5297684240576326	0.14862865603256303	0.43977242758812246	0.725988448116599	0.20387442064759745	0.38762426229128666	0.7907103582624984	0.20585825396912336	0.3866118687417132	0.8278585620497849	0.19272190245718263	0.3861280456768957	0.8324559203631461
